<svg xmlns="http://www.w3.org/2000/svg" version="1.1" width="1024" height="1024" viewBox="0 0 1024 1024"><path d="M 504,880 Z" fill="blue" stroke="none"/><path d="M 485,880 Z" fill="blue" stroke="none"/><path d="M 511,877 Z" fill="blue" stroke="none"/><path d="M 516,875 Z" fill="blue" stroke="none"/><path d="M 530,869 Z" fill="blue" stroke="none"/><path d="M 532,868 Z" fill="blue" stroke="none"/><path d="M 450,861 Z" fill="blue" stroke="none"/><path d="M 446,859 Z" fill="blue" stroke="none"/><path d="M 444,858 Z" fill="blue" stroke="none"/><path d="M 420,845 Z" fill="blue" stroke="none"/><path d="M 413,841 Z" fill="blue" stroke="none"/><path d="M 408,839 Z" fill="blue" stroke="none"/><path d="M 389,828 Z" fill="blue" stroke="none"/><path d="M 387,827 Z" fill="blue" stroke="none"/><path d="M 652,816 Z" fill="blue" stroke="none"/><path d="M 360,813 Z" fill="blue" stroke="none"/><path d="M 673,807 Z" fill="blue" stroke="none"/><path d="M 345,805 Z" fill="blue" stroke="none"/><path d="M 703,795 Z" fill="blue" stroke="none"/><path d="M 324,794 Z" fill="blue" stroke="none"/><path d="M 717,788 Z" fill="blue" stroke="none"/><path d="M 729,783 Z" fill="blue" stroke="none"/><path d="M 282,771 Z" fill="blue" stroke="none"/><path d="M 244,751 Z" fill="blue" stroke="none"/><path d="M 229,743 Z" fill="blue" stroke="none"/><path d="M 823,742 Z" fill="blue" stroke="none"/><path d="M 831,733 Z" fill="blue" stroke="none"/><path d="M 195,724 Z" fill="blue" stroke="none"/><path d="M 832,708 Z" fill="blue" stroke="none"/><path d="M 832,704 Z" fill="blue" stroke="none"/><path d="M 832,607 Z" fill="blue" stroke="none"/><path d="M 832,601 Z" fill="blue" stroke="none"/><path d="M 832,582 Z" fill="blue" stroke="none"/><path d="M 832,525 Z" fill="blue" stroke="none"/><path d="M 832,511 Z" fill="blue" stroke="none"/><path d="M 832,500 L 832,503 Z" fill="blue" stroke="none"/><path d="M 832,497 L 832,498 Z" fill="blue" stroke="none"/><path d="M 808,386 Z" fill="blue" stroke="none"/><path d="M 802,384 Z" fill="blue" stroke="none"/><path d="M 791,380 Z" fill="blue" stroke="none"/><path d="M 788,379 Z" fill="blue" stroke="none"/><path d="M 772,373 Z" fill="blue" stroke="none"/><path d="M 755,367 Z" fill="blue" stroke="none"/><path d="M 721,355 Z" fill="blue" stroke="none"/><path d="M 712,352 Z" fill="blue" stroke="none"/><path d="M 675,339 Z" fill="blue" stroke="none"/><path d="M 665,335 Z" fill="blue" stroke="none"/><path d="M 317,256 L 316,257 Z" fill="blue" stroke="none"/><path d="M 331,244 Z" fill="blue" stroke="none"/><path d="M 354,225 Z" fill="blue" stroke="none"/><path d="M 718,197 Z" fill="blue" stroke="none"/><path d="M 706,194 Z" fill="blue" stroke="none"/><path d="M 699,192 Z" fill="blue" stroke="none"/><path d="M 683,188 Z" fill="blue" stroke="none"/><path d="M 680,187 Z" fill="blue" stroke="none"/><path d="M 675,186 L 676,186 Z" fill="blue" stroke="none"/><path d="M 405,182 Z" fill="blue" stroke="none"/><path d="M 640,177 L 641,177 Z" fill="blue" stroke="none"/><path d="M 636,176 L 637,176 Z" fill="blue" stroke="none"/><path d="M 626,173 Z" fill="blue" stroke="none"/><path d="M 595,165 Z" fill="blue" stroke="none"/><path d="M 589,163 Z" fill="blue" stroke="none"/><path d="M 578,160 Z" fill="blue" stroke="none"/><path d="M 565,157 Z" fill="blue" stroke="none"/><path d="M 554,154 L 555,154 Z" fill="blue" stroke="none"/><path d="M 441,152 Z" fill="blue" stroke="none"/><path d="M 533,148 Z" fill="blue" stroke="none"/><path d="M 524,146 Z" fill="blue" stroke="none"/><path d="M 452,144 Z" fill="blue" stroke="none"/><path d="M 466,135 L 463,138 L 462,138 L 458,142 L 457,142 L 453,146 L 452,146 L 448,150 L 447,150 L 442,155 L 441,155 L 435,161 L 434,161 L 429,166 L 428,166 L 424,170 L 423,170 L 418,175 L 417,175 L 412,180 L 411,180 L 407,184 L 406,184 L 401,189 L 400,189 L 395,194 L 394,194 L 388,200 L 387,200 L 382,205 L 381,205 L 376,210 L 375,210 L 370,215 L 369,215 L 364,220 L 363,220 L 358,225 L 357,225 L 353,229 L 352,229 L 346,235 L 345,235 L 341,239 L 340,239 L 334,245 L 333,245 L 329,249 L 328,249 L 324,253 L 323,253 L 317,259 L 316,259 L 311,264 L 310,264 L 305,269 L 304,269 L 298,275 L 297,275 L 293,279 L 292,279 L 287,284 L 286,284 L 282,288 L 281,288 L 275,294 L 274,294 L 270,298 L 269,298 L 264,303 L 263,303 L 258,308 L 257,308 L 252,313 L 251,313 L 246,318 L 245,318 L 240,323 L 239,323 L 234,328 L 233,328 L 229,332 L 228,332 L 224,336 L 223,336 L 218,341 L 217,341 L 212,346 L 211,346 L 206,351 L 205,351 L 201,355 L 200,355 L 196,359 L 195,359 L 192,362 L 192,363 L 190,365 L 190,366 L 189,367 L 189,368 L 188,369 L 188,711 L 189,712 L 189,714 L 190,715 L 190,717 L 191,718 L 191,719 L 193,721 L 194,721 L 195,722 L 196,722 L 197,723 L 198,723 L 200,725 L 201,725 L 202,726 L 203,726 L 204,727 L 205,727 L 207,729 L 208,729 L 209,730 L 210,730 L 211,731 L 212,731 L 214,733 L 215,733 L 216,734 L 217,734 L 218,735 L 219,735 L 220,736 L 221,736 L 222,737 L 223,737 L 224,738 L 225,738 L 226,739 L 227,739 L 229,741 L 230,741 L 231,742 L 232,742 L 233,743 L 234,743 L 235,744 L 236,744 L 238,746 L 239,746 L 240,747 L 241,747 L 242,748 L 243,748 L 244,749 L 245,749 L 246,750 L 247,750 L 248,751 L 249,751 L 250,752 L 251,752 L 253,754 L 254,754 L 255,755 L 256,755 L 257,756 L 258,756 L 259,757 L 260,757 L 261,758 L 262,758 L 263,759 L 264,759 L 265,760 L 266,760 L 267,761 L 268,761 L 269,762 L 270,762 L 271,763 L 272,763 L 273,764 L 274,764 L 275,765 L 276,765 L 278,767 L 279,767 L 280,768 L 281,768 L 282,769 L 283,769 L 284,770 L 285,770 L 286,771 L 287,771 L 288,772 L 289,772 L 290,773 L 291,773 L 292,774 L 293,774 L 294,775 L 295,775 L 297,777 L 298,777 L 299,778 L 300,778 L 301,779 L 302,779 L 303,780 L 304,780 L 305,781 L 306,781 L 308,783 L 309,783 L 310,784 L 311,784 L 312,785 L 313,785 L 315,787 L 316,787 L 317,788 L 318,788 L 319,789 L 320,789 L 321,790 L 322,790 L 323,791 L 324,791 L 325,792 L 326,792 L 328,794 L 329,794 L 330,795 L 331,795 L 332,796 L 333,796 L 334,797 L 335,797 L 336,798 L 337,798 L 338,799 L 339,799 L 340,800 L 341,800 L 342,801 L 343,801 L 344,802 L 345,802 L 346,803 L 347,803 L 348,804 L 349,804 L 351,806 L 352,806 L 353,807 L 354,807 L 355,808 L 356,808 L 357,809 L 358,809 L 359,810 L 360,810 L 361,811 L 362,811 L 363,812 L 364,812 L 365,813 L 366,813 L 367,814 L 368,814 L 369,815 L 370,815 L 371,816 L 372,816 L 373,817 L 374,817 L 376,819 L 377,819 L 378,820 L 379,820 L 380,821 L 381,821 L 382,822 L 383,822 L 384,823 L 385,823 L 387,825 L 388,825 L 389,826 L 390,826 L 391,827 L 392,827 L 393,828 L 394,828 L 395,829 L 396,829 L 398,831 L 399,831 L 400,832 L 401,832 L 402,833 L 403,833 L 404,834 L 405,834 L 406,835 L 407,835 L 408,836 L 409,836 L 411,838 L 412,838 L 413,839 L 414,839 L 415,840 L 416,840 L 417,841 L 418,841 L 420,843 L 421,843 L 422,844 L 423,844 L 424,845 L 425,845 L 426,846 L 427,846 L 428,847 L 429,847 L 431,849 L 432,849 L 433,850 L 434,850 L 435,851 L 436,851 L 437,852 L 438,852 L 439,853 L 440,853 L 441,854 L 442,854 L 444,856 L 445,856 L 446,857 L 447,857 L 448,858 L 449,858 L 450,859 L 451,859 L 452,860 L 453,860 L 455,862 L 456,862 L 457,863 L 458,863 L 459,864 L 460,864 L 461,865 L 462,865 L 463,866 L 464,866 L 465,867 L 466,867 L 467,868 L 468,868 L 470,870 L 471,870 L 472,871 L 473,871 L 474,872 L 475,872 L 476,873 L 477,873 L 478,874 L 479,874 L 480,875 L 481,875 L 482,876 L 483,876 L 485,878 L 486,878 L 487,879 L 490,879 L 491,880 L 499,880 L 500,879 L 502,879 L 503,878 L 504,878 L 505,877 L 506,877 L 507,876 L 509,876 L 510,875 L 511,875 L 512,874 L 513,874 L 514,873 L 515,873 L 516,872 L 518,872 L 519,871 L 520,871 L 521,870 L 522,870 L 523,869 L 525,869 L 526,868 L 527,868 L 528,867 L 529,867 L 530,866 L 532,866 L 533,865 L 534,865 L 535,864 L 536,864 L 537,863 L 539,863 L 540,862 L 541,862 L 542,861 L 543,861 L 544,860 L 546,860 L 547,859 L 548,859 L 549,858 L 550,858 L 551,857 L 553,857 L 554,856 L 555,856 L 556,855 L 557,855 L 558,854 L 560,854 L 561,853 L 562,853 L 563,852 L 564,852 L 565,851 L 566,851 L 567,850 L 569,850 L 570,849 L 571,849 L 572,848 L 573,848 L 574,847 L 576,847 L 577,846 L 578,846 L 579,845 L 580,845 L 581,844 L 582,844 L 583,843 L 585,843 L 586,842 L 587,842 L 588,841 L 590,841 L 591,840 L 592,840 L 593,839 L 594,839 L 595,838 L 597,838 L 598,837 L 599,837 L 600,836 L 602,836 L 603,835 L 604,835 L 605,834 L 606,834 L 607,833 L 609,833 L 610,832 L 611,832 L 612,831 L 613,831 L 614,830 L 615,830 L 616,829 L 617,829 L 618,828 L 619,828 L 620,827 L 622,827 L 623,826 L 624,826 L 625,825 L 626,825 L 627,824 L 629,824 L 630,823 L 632,823 L 633,822 L 634,822 L 635,821 L 636,821 L 637,820 L 638,820 L 639,819 L 641,819 L 642,818 L 643,818 L 644,817 L 645,817 L 646,816 L 647,816 L 648,815 L 649,815 L 650,814 L 652,814 L 653,813 L 654,813 L 655,812 L 656,812 L 657,811 L 659,811 L 660,810 L 661,810 L 662,809 L 663,809 L 664,808 L 666,808 L 667,807 L 668,807 L 669,806 L 670,806 L 671,805 L 673,805 L 674,804 L 675,804 L 676,803 L 677,803 L 678,802 L 680,802 L 681,801 L 682,801 L 683,800 L 685,800 L 686,799 L 688,799 L 689,798 L 690,798 L 691,797 L 693,797 L 694,796 L 695,796 L 696,795 L 697,795 L 698,794 L 699,794 L 700,793 L 701,793 L 702,792 L 703,792 L 704,791 L 705,791 L 706,790 L 708,790 L 709,789 L 710,789 L 711,788 L 712,788 L 713,787 L 714,787 L 715,786 L 717,786 L 718,785 L 720,785 L 721,784 L 722,784 L 723,783 L 724,783 L 725,782 L 727,782 L 728,781 L 729,781 L 730,780 L 731,780 L 732,779 L 733,779 L 734,778 L 735,778 L 736,777 L 737,777 L 738,776 L 740,776 L 741,775 L 742,775 L 743,774 L 745,774 L 746,773 L 747,773 L 748,772 L 749,772 L 750,771 L 752,771 L 753,770 L 754,770 L 755,769 L 756,769 L 757,768 L 759,768 L 760,767 L 761,767 L 762,766 L 763,766 L 764,765 L 765,765 L 766,764 L 767,764 L 768,763 L 769,763 L 770,762 L 772,762 L 773,761 L 774,761 L 775,760 L 776,760 L 777,759 L 778,759 L 779,758 L 781,758 L 782,757 L 783,757 L 784,756 L 785,756 L 786,755 L 788,755 L 789,754 L 790,754 L 791,753 L 793,753 L 794,752 L 795,752 L 796,751 L 797,751 L 798,750 L 800,750 L 801,749 L 802,749 L 803,748 L 805,748 L 806,747 L 807,747 L 808,746 L 809,746 L 810,745 L 812,745 L 813,744 L 814,744 L 815,743 L 816,743 L 817,742 L 818,742 L 819,741 L 820,741 L 821,740 L 823,740 L 828,735 L 828,733 L 829,732 L 829,722 L 830,721 L 830,401 L 829,400 L 829,399 L 828,398 L 828,397 L 827,396 L 826,396 L 824,394 L 823,394 L 822,393 L 820,393 L 819,392 L 818,392 L 817,391 L 815,391 L 814,390 L 812,390 L 811,389 L 809,389 L 808,388 L 806,388 L 805,387 L 803,387 L 802,386 L 800,386 L 799,385 L 798,385 L 797,384 L 795,384 L 794,383 L 792,383 L 791,382 L 789,382 L 788,381 L 786,381 L 785,380 L 783,380 L 782,379 L 781,379 L 780,378 L 778,378 L 777,377 L 775,377 L 774,376 L 772,376 L 771,375 L 770,375 L 769,374 L 767,374 L 766,373 L 764,373 L 763,372 L 761,372 L 760,371 L 758,371 L 757,370 L 755,370 L 754,369 L 753,369 L 752,368 L 750,368 L 749,367 L 747,367 L 746,366 L 744,366 L 743,365 L 741,365 L 740,364 L 738,364 L 737,363 L 736,363 L 735,362 L 733,362 L 732,361 L 730,361 L 729,360 L 727,360 L 726,359 L 724,359 L 723,358 L 721,358 L 720,357 L 719,357 L 718,356 L 716,356 L 715,355 L 713,355 L 712,354 L 710,354 L 709,353 L 707,353 L 706,352 L 704,352 L 703,351 L 702,351 L 701,350 L 699,350 L 698,349 L 696,349 L 695,348 L 693,348 L 692,347 L 690,347 L 689,346 L 687,346 L 686,345 L 685,345 L 684,344 L 682,344 L 681,343 L 679,343 L 678,342 L 677,342 L 676,341 L 674,341 L 673,340 L 671,340 L 670,339 L 668,339 L 667,338 L 666,338 L 665,337 L 663,337 L 662,336 L 661,336 L 660,335 L 658,335 L 657,334 L 655,334 L 654,333 L 653,333 L 652,332 L 650,332 L 649,331 L 648,331 L 647,330 L 645,330 L 644,329 L 642,329 L 641,328 L 640,328 L 639,327 L 640,326 L 641,326 L 648,319 L 649,319 L 652,316 L 653,316 L 657,312 L 658,312 L 662,308 L 663,308 L 668,303 L 669,303 L 676,296 L 677,296 L 687,286 L 688,286 L 693,281 L 694,281 L 699,276 L 700,276 L 705,271 L 706,271 L 711,266 L 712,266 L 717,261 L 718,261 L 723,256 L 724,256 L 731,249 L 732,249 L 739,242 L 740,242 L 749,233 L 750,233 L 755,228 L 755,227 L 756,226 L 756,216 L 755,215 L 755,214 L 754,213 L 754,212 L 750,208 L 749,208 L 748,207 L 747,207 L 746,206 L 743,206 L 742,205 L 739,205 L 738,204 L 735,204 L 734,203 L 731,203 L 730,202 L 727,202 L 726,201 L 723,201 L 722,200 L 719,200 L 718,199 L 715,199 L 714,198 L 711,198 L 710,197 L 708,197 L 707,196 L 704,196 L 703,195 L 700,195 L 699,194 L 696,194 L 695,193 L 692,193 L 691,192 L 688,192 L 687,191 L 685,191 L 684,190 L 681,190 L 680,189 L 677,189 L 676,188 L 673,188 L 672,187 L 669,187 L 668,186 L 665,186 L 664,185 L 662,185 L 661,184 L 658,184 L 657,183 L 654,183 L 653,182 L 650,182 L 649,181 L 646,181 L 645,180 L 642,180 L 641,179 L 638,179 L 637,178 L 634,178 L 633,177 L 631,177 L 630,176 L 627,176 L 626,175 L 623,175 L 622,174 L 619,174 L 618,173 L 616,173 L 615,172 L 612,172 L 611,171 L 608,171 L 607,170 L 604,170 L 603,169 L 601,169 L 600,168 L 597,168 L 596,167 L 593,167 L 592,166 L 590,166 L 589,165 L 586,165 L 585,164 L 582,164 L 581,163 L 578,163 L 577,162 L 575,162 L 574,161 L 571,161 L 570,160 L 567,160 L 566,159 L 563,159 L 562,158 L 559,158 L 558,157 L 556,157 L 555,156 L 552,156 L 551,155 L 548,155 L 547,154 L 545,154 L 544,153 L 540,153 L 539,152 L 537,152 L 536,151 L 533,151 L 532,150 L 530,150 L 529,149 L 526,149 L 525,148 L 522,148 L 521,147 L 518,147 L 517,146 L 514,146 L 513,145 L 510,145 L 509,144 L 506,144 L 505,143 L 503,143 L 502,142 L 499,142 L 498,141 L 495,141 L 494,140 L 491,140 L 490,139 L 488,139 L 487,138 L 483,138 L 482,137 L 478,137 L 477,136 L 475,136 L 474,135 Z" fill="blue" stroke="none"/><path d="M 566,35 Z" fill="blue" stroke="none"/></svg>